# xmcd CD database file
#
# Track frame offsets:
#	150
#	16405
#	41763
#	62286
#	80196
#	97605
#	120205
#	146425
#	158510
#	178885
#	194957
#	212649
#	238164
#	254452
#	275084
#
# Disc length: 3899 seconds
#
# Revision: 0
# Processed by: cddbd v1.5.2PL0 Copyright (c) Steve Scherf et al.
# Submitted via: CDex 1.51
#
DISCID=d20f390f
DTITLE=Holograf - Jurnalul national - CD2
DYEAR=1900
DGENRE=Country
TTITLE0=undeva departe
TTITLE1=umbre pe cer
TTITLE2=fara ea
TTITLE3=vino
TTITLE4=suflet pereche
TTITLE5=sa nu-im iei niciodata dragostea
TTITLE6=vine o zi
TTITLE7=inima mea 
TTITLE8=te voi iube mereu
TTITLE9=stiu cine sunt
TTITLE10=n-am iubit
TTITLE11=pasari de fum
TTITLE12=primavara incepe cu tine
TTITLE13=asa frumoasa
TTITLE14=n-am stiut
EXTD=
EXTT0=
EXTT1=
EXTT2=
EXTT3=
EXTT4=
EXTT5=
EXTT6=
EXTT7=
EXTT8=
EXTT9=
EXTT10=
EXTT11=
EXTT12=
EXTT13=
EXTT14=
PLAYORDER=
